<?xml version="1.0" encoding="UTF-8"?>
<svg xmlns="http://www.w3.org/2000/svg" width="40" height="40" viewBox="0 0 40 40" fill="none">
  <circle cx="19.9999" cy="20" r="19" stroke="black" stroke-width="2"></circle>
  <path d="M19.9091 14.8166C18.9028 14.8166 17.9191 15.1147 17.0824 15.6733C16.2457 16.2318 15.5935 17.0257 15.2084 17.9545C14.8233 18.8834 14.7226 19.9054 14.9189 20.8915C15.1152 21.8775 15.5998 22.7832 16.3114 23.4941C17.0229 24.205 17.9295 24.6892 18.9165 24.8853C19.9034 25.0814 20.9265 24.9808 21.8562 24.596C22.7859 24.2113 23.5805 23.5598 24.1396 22.7239C24.6986 21.8879 24.997 20.9051 24.997 19.8998C24.9987 19.2318 24.8682 18.5701 24.6131 17.9526C24.358 17.3352 23.9832 16.7741 23.5105 16.3018C23.0377 15.8295 22.4761 15.4551 21.8581 15.2002C21.2401 14.9453 20.5777 14.815 19.9091 14.8166ZM19.9091 23.2101C19.2538 23.2101 18.6132 23.0159 18.0683 22.6522C17.5234 22.2884 17.0987 21.7714 16.8479 21.1666C16.5972 20.5617 16.5315 19.8961 16.6594 19.254C16.7872 18.6119 17.1028 18.022 17.5662 17.5591C18.0296 17.0961 18.62 16.7809 19.2627 16.6531C19.9054 16.5254 20.5716 16.591 21.1771 16.8415C21.7825 17.0921 22.3 17.5163 22.6641 18.0607C23.0281 18.6051 23.2225 19.2451 23.2225 19.8998C23.2225 20.7777 22.8734 21.6197 22.252 22.2405C21.6306 22.8613 20.7879 23.2101 19.9091 23.2101ZM26.3993 14.6059C26.3993 14.8511 26.3265 15.0908 26.1902 15.2946C26.0538 15.4985 25.86 15.6574 25.6333 15.7513C25.4065 15.8451 25.157 15.8697 24.9163 15.8218C24.6755 15.774 24.4544 15.6559 24.2809 15.4825C24.1073 15.3091 23.9891 15.0882 23.9412 14.8477C23.8934 14.6072 23.9179 14.3579 24.0119 14.1314C24.1058 13.9049 24.2648 13.7112 24.4689 13.575C24.673 13.4388 24.9129 13.3661 25.1584 13.3661C25.4875 13.3661 25.8031 13.4967 26.0359 13.7292C26.2686 13.9617 26.3993 14.277 26.3993 14.6059ZM29.7623 15.8457C29.7984 14.3044 29.223 12.8114 28.1615 11.6923C27.0474 10.6183 25.5523 10.0297 24.0043 10.0558C22.391 9.9814 17.4272 9.9814 15.8139 10.0558C14.2716 10.0224 12.7782 10.597 11.6567 11.6551C10.5952 12.7742 10.0197 14.2672 10.0558 15.8085C9.98139 17.4202 9.98139 22.3794 10.0558 23.9911C10.0197 25.5324 10.5952 27.0254 11.6567 28.1445C12.7782 29.2026 14.2716 29.7772 15.8139 29.7438C17.452 29.843 22.3662 29.843 24.0043 29.7438C25.547 29.7799 27.0414 29.2049 28.1615 28.1445C29.223 27.0254 29.7984 25.5324 29.7623 23.9911C29.8368 22.3794 29.8368 17.4202 29.7623 15.8085V15.8457ZM27.6527 25.764C27.4842 26.1905 27.2298 26.5777 26.9054 26.9019C26.5809 27.2261 26.1933 27.4802 25.7664 27.6485C23.84 28.0377 21.8705 28.1711 19.9091 28.0453C17.9518 28.1713 15.9864 28.0379 14.0642 27.6485C13.6373 27.4802 13.2497 27.2261 12.9252 26.9019C12.6007 26.5777 12.3464 26.1905 12.1779 25.764C11.6567 24.4499 11.7684 21.3504 11.7684 19.9122C11.7684 18.474 11.6567 15.3621 12.1779 14.0603C12.3416 13.6297 12.5942 13.2383 12.9191 12.9115C13.2441 12.5847 13.6342 12.3299 14.0642 12.1634C15.9864 11.7741 17.9518 11.6407 19.9091 11.7667C21.8705 11.6409 23.84 11.7743 25.7664 12.1634C26.1933 12.3318 26.5809 12.5859 26.9054 12.9101C27.2298 13.2342 27.4842 13.6215 27.6527 14.0479C28.1739 15.3621 28.0498 18.4616 28.0498 19.8998C28.0498 21.338 28.1739 24.4499 27.6527 25.7516V25.764Z" fill="black"></path>
</svg>
