<?xml version="1.0" encoding="UTF-8"?>
<svg xmlns="http://www.w3.org/2000/svg" width="40" height="40" viewBox="0 0 40 40" fill="none">
  <path d="M29.9999 22.0575V29.3843H25.7528V22.547C25.7528 20.8308 25.1385 19.6595 23.6006 19.6595C22.4274 19.6595 21.7278 20.4483 21.4206 21.2133C21.3096 21.4868 21.2799 21.8673 21.2799 22.2478V29.3843H17.0309C17.0309 29.3843 17.0883 17.8065 17.0309 16.6075H21.2799V18.4169L21.2521 18.4585H21.2799V18.4189C21.8447 17.5469 22.8515 16.3063 25.1088 16.3063C27.9031 16.3063 29.9999 18.1335 29.9999 22.0575ZM12.5856 10.446C11.133 10.446 10.1817 11.4013 10.1817 12.6538C10.1817 13.8825 11.1052 14.8635 12.5302 14.8635H12.5579C14.0403 14.8635 14.9618 13.8805 14.9618 12.6538C14.9341 11.4013 14.0403 10.446 12.5856 10.446ZM10.4334 29.3843H14.6824V16.6075H10.4334V29.3843Z" fill="black"></path>
  <circle cx="19.9999" cy="20" r="19" stroke="black" stroke-width="2"></circle>
</svg>
