<svg width="49" height="291" viewBox="0 0 49 291" fill="none" xmlns="http://www.w3.org/2000/svg">
<path d="M34.2123 161.854C34.8367 162.475 35.3721 163.27 35.8154 164.234C36.2587 165.2 36.482 166.205 36.482 167.252C36.482 168.298 36.162 169.199 35.5204 169.853C34.8788 170.508 33.8517 170.834 32.4374 170.834L32.1908 170.834C33.6378 172.404 34.7149 173.901 35.422 175.324C36.1292 176.746 36.482 178.146 36.482 179.52C36.482 181.157 35.9731 182.449 34.9522 183.396C33.9329 184.345 32.6513 184.819 31.1043 184.819C29.164 184.819 27.5203 184.01 26.1716 182.39C24.8229 180.77 23.5241 178.211 22.2754 174.71L21.5354 172.502C21.4699 172.274 21.3965 172.019 21.3138 171.741C21.2326 171.463 21.1249 171.16 20.9938 170.833L17.2443 170.833C14.2191 170.833 12.7065 172.157 12.7065 174.808C12.7065 176.085 13.1014 177.156 13.8897 178.023C14.6796 178.889 15.8472 179.487 17.3926 179.813C18.3463 180.009 18.9957 180.189 19.3407 180.354C19.6857 180.518 19.8589 180.862 19.8589 181.385C19.8589 181.811 19.695 182.129 19.3657 182.342C19.0379 182.554 18.6258 182.612 18.1325 182.514C15.9955 182.023 14.3674 180.961 13.2497 179.324C12.132 177.689 11.5732 175.726 11.5732 173.435C11.5732 170.917 12.2397 169.019 13.5713 167.742C14.9028 166.466 16.8509 165.829 19.4172 165.829L32.5873 165.829C33.3116 165.829 33.8127 165.714 34.0921 165.486C34.3715 165.258 34.512 164.914 34.512 164.455C34.512 164.129 34.3965 163.761 34.167 163.351C33.9375 162.942 33.7065 162.607 33.477 162.344L34.217 161.854L34.2123 161.854ZM32.5108 179.029C33.0868 178.31 33.374 177.394 33.374 176.28C33.374 175.364 33.1851 174.425 32.8074 173.459C32.4296 172.494 31.9114 171.618 31.2542 170.833L21.9319 170.833C22.7218 173.189 23.8644 175.322 25.3599 177.237C26.8569 179.15 28.3929 180.108 29.9726 180.108C31.0903 180.108 31.9379 179.748 32.5123 179.029L32.5108 179.029Z" fill="black"/>
<path d="M0.193542 290.98C0.355886 287.739 1.19414 284.746 2.70986 282.002C4.22715 279.258 6.36415 277.067 9.12242 275.43C11.8807 273.793 15.1151 272.975 18.8256 272.975C22.536 272.975 25.7142 273.793 28.4553 275.43C31.198 277.067 33.3272 279.258 34.8429 282.002C36.3586 284.746 37.1953 287.739 37.3577 290.98L36.3899 290.98C36.0339 288.606 35.1005 286.487 33.5832 284.625C32.0675 282.765 30.0351 281.304 27.486 280.244C24.9384 279.185 22.0506 278.656 18.824 278.656C15.5974 278.656 12.6144 279.185 10.0653 280.244C7.51772 281.304 5.47594 282.765 3.94461 284.625C2.41171 286.487 1.48448 288.606 1.16136 290.98L0.193542 290.98Z" fill="black"/>
<path d="M34.9381 245.7L35.8091 245.7L35.8091 255.425L34.9381 255.425L34.9381 254.655C34.9381 253.628 34.4713 253.114 33.5347 253.114L19.8885 253.114C18.0825 253.114 16.6698 253.426 15.6551 254.052C14.6405 254.678 14.1316 255.809 14.1316 257.445C14.1316 259.307 15.2134 261.538 17.3738 264.137L33.5363 264.137C34.4729 264.137 34.9396 263.559 34.9396 262.404L34.9396 261.73L35.8107 261.73L35.8107 271.358L34.9396 271.358L34.9396 270.636C34.9396 269.577 34.4729 269.048 33.5363 269.048L16.1624 269.048L16.1624 271.358L15.5818 271.358C14.7107 268.951 13.3886 266.754 11.6137 264.763L11.6137 264.137L16.0657 264.137C14.7763 262.726 13.7351 261.297 12.9452 259.853C12.1554 258.408 11.7589 256.756 11.7589 254.894C11.7589 252.52 12.4691 250.794 13.8881 249.718C15.3086 248.643 17.2598 248.106 19.7434 248.106L33.5347 248.106C34.4713 248.106 34.9381 247.576 34.9381 246.517L34.9381 245.7Z" fill="black"/>
<path d="M33.8253 231.426C33.8253 229.885 33.407 228.474 32.5671 227.189C31.7289 225.907 30.6159 224.863 29.2282 224.06L29.7121 223.338C31.8101 224.333 33.446 225.681 34.623 227.382C35.8015 229.084 36.3884 231.121 36.3884 233.496C36.3884 235.71 35.8718 237.701 34.8399 239.465C33.8081 241.231 32.3564 242.602 30.4848 243.581C28.6147 244.561 26.4855 245.05 24.0972 245.05C21.7089 245.05 19.5719 244.553 17.6846 243.557C15.7974 242.564 14.33 241.191 13.2811 239.442C12.2336 237.693 11.7076 235.712 11.7076 233.496C11.7076 231.474 12.1431 229.733 13.0141 228.273C13.8852 226.813 15.0387 225.706 16.4749 224.951C17.911 224.198 19.4673 223.819 21.1453 223.819L21.1453 239.706C23.017 239.835 24.9198 239.666 26.8555 239.201C28.7911 238.737 30.4364 237.871 31.7913 236.602C33.1463 235.335 33.8237 233.609 33.8237 231.426L33.8253 231.426ZM20.0355 228.826C19.4876 228.73 18.9397 228.682 18.3902 228.682C16.7449 228.682 15.365 229.092 14.252 229.91C13.139 230.728 12.5833 231.924 12.5833 233.496C12.5833 235.229 13.3014 236.633 14.7359 237.707C16.172 238.784 17.9375 239.417 20.0355 239.61L20.0355 228.826Z" fill="black"/>
<path d="M10.501 196.737C17.1789 196.737 20.5179 201.52 20.5179 211.083L20.5179 214.887L32.8091 214.887C34.2296 214.887 34.9383 214.068 34.9383 212.431L34.9383 211.806L35.8094 211.806L35.8094 223.408L34.9383 223.408L34.9383 222.397C34.9383 220.953 34.2296 220.23 32.8091 220.23L3.82305 220.23C2.43689 220.23 1.74225 220.953 1.74225 222.397L1.74225 223.648L0.871216 223.648L0.871215 209.399C0.871215 205.131 1.63766 201.954 3.17056 199.867C4.70345 197.781 7.14641 196.737 10.501 196.737ZM1.74225 214.887L19.6468 214.887L19.6468 211.709C19.6468 208.597 18.832 206.246 17.2023 204.657C15.5742 203.069 13.3233 202.274 10.451 202.274C7.5788 202.274 5.41058 202.996 3.94325 204.44C2.47592 205.884 1.74069 208.002 1.74069 210.795L1.74069 214.887L1.74225 214.887Z" fill="black"/>
<path d="M34.9382 185.977L35.8092 185.977L35.8092 195.75L34.9382 195.75L34.9382 194.883C34.9382 193.824 34.4714 193.294 33.5348 193.294L5.03264 193.294L5.03264 196.087L4.45195 196.087C4.00083 194.835 3.37175 193.568 2.56471 192.283C1.75924 191.001 0.903815 189.909 -3.09337e-07 189.01L-3.36694e-07 188.384L33.5348 188.384C34.4714 188.384 34.9382 187.806 34.9382 186.651L34.9382 185.977Z" fill="black"/>
<path d="M12.3881 146.293L12.3881 138.927L13.2591 138.927L13.2591 140.179C13.2591 140.757 13.3965 141.19 13.6697 141.479C13.9444 141.768 14.5001 142.073 15.3399 142.393L36.9706 150.577C40.0349 151.733 42.3576 152.809 43.9389 153.803C45.5186 154.798 46.552 155.688 47.0359 156.476C47.5198 157.263 47.7618 158.105 47.7618 159.002C47.7618 159.998 47.551 160.776 47.1327 161.338C46.7128 161.9 46.1805 162.18 45.5358 162.18C45.0519 162.18 44.6476 162.027 44.326 161.721C44.0029 161.417 43.8421 161.024 43.8421 160.543C43.8421 160.223 43.9061 159.973 44.0357 159.797C44.1637 159.622 44.3416 159.436 44.568 159.243C44.8255 158.987 45.0113 158.769 45.1237 158.594C45.2361 158.418 45.2923 158.153 45.2923 157.799C45.2923 157.094 45.0332 156.451 44.518 155.873C44.0013 155.295 43.1709 154.718 42.0267 154.14C40.8809 153.562 39.2606 152.873 37.1626 152.07L15.29 161.409C14.5485 161.763 14.024 162.116 13.7181 162.468C13.4121 162.822 13.2576 163.287 13.2576 163.865L13.2576 165.116L12.3865 165.116L12.3865 154.477L13.2576 154.477L13.2576 155.199C13.2576 155.938 13.5167 156.306 14.0318 156.306C14.2582 156.306 14.6609 156.194 15.2416 155.969L30.5815 149.566L15.29 143.886C14.8061 143.726 14.4361 143.645 14.177 143.645C13.5651 143.645 13.2576 144.047 13.2576 144.849L13.2576 146.293L12.3865 146.293L12.3881 146.293Z" fill="black"/>
<path d="M12.9936 99.4449C13.7195 98.6592 14.5172 98.2663 15.3882 98.2663C15.9689 98.2663 16.4528 98.4433 16.8399 98.7958C17.227 99.1499 17.4206 99.6468 17.4206 100.288C17.4206 100.93 17.2988 101.372 17.0569 101.709C16.8149 102.046 16.4512 102.391 15.9689 102.745C15.485 103.099 15.1306 103.436 14.9043 103.756C14.6795 104.077 14.5655 104.543 14.5655 105.152C14.5655 106.533 15.7113 108.073 18.0013 109.774L33.5347 109.774C34.4713 109.774 34.9381 109.196 34.9381 108.041L34.9381 106.885L35.8091 106.885L35.8091 116.899L34.9381 116.899L34.9381 116.273C34.9381 115.214 34.4713 114.684 33.5347 114.684L16.1624 114.684L16.1624 116.995L15.5818 116.995C14.7107 114.588 13.3886 112.39 11.6137 110.399L11.6137 109.774L16.5012 109.774C13.4369 107.239 11.9041 104.896 11.9041 102.745C11.9041 101.333 12.2662 100.234 12.9921 99.4465L12.9921 99.4449L12.9936 99.4449Z" fill="black"/>
<path d="M23.9536 98.0952C20.1152 98.0952 17.0822 97.0113 14.8562 94.8449C12.6302 92.6785 11.5172 89.7015 11.5172 85.9154C11.5172 82.1293 12.6302 79.1523 14.8562 76.9859C17.0822 74.8196 20.1152 73.7371 23.9536 73.7371C27.7921 73.7371 30.7689 74.8196 32.9793 76.9859C35.1897 79.1523 36.2933 82.1293 36.2933 85.9154C36.2933 89.7015 35.1881 92.6801 32.9793 94.8449C30.7705 97.0113 27.7609 98.0952 23.9536 98.0952ZM23.9536 92.4145C27.4706 92.4145 30.2445 91.8601 32.2769 90.7529C34.3093 89.6456 35.3255 88.0336 35.3255 85.9139C35.3255 83.7941 34.3093 82.1759 32.2769 81.0516C30.2445 79.9288 27.4706 79.3666 23.9536 79.3666C20.4367 79.3666 17.6066 79.9288 15.5571 81.0516C13.509 82.1759 12.485 83.7956 12.485 85.9139C12.485 88.0321 13.5012 89.6456 15.5336 90.7529C17.5661 91.8601 20.3727 92.4145 23.9536 92.4145Z" fill="black"/>
<path d="M34.9381 46.1725L35.8091 46.1725L35.8091 53.9714L31.7443 53.9714C33.132 55.3846 34.2356 56.7869 35.0598 58.183C35.8825 59.5791 36.293 61.2719 36.293 63.2612C36.293 65.4757 35.5594 67.2166 34.092 68.4853C32.6247 69.7541 30.7125 70.3877 28.3569 70.3877L16.1624 70.3877L16.1624 72.6985L15.5818 72.6985C14.6467 70.1951 13.3246 67.9651 11.6137 66.0068L11.6137 65.381L28.2118 65.381C29.8898 65.381 31.2682 64.9477 32.3484 64.0811C33.4302 63.2146 33.9687 62.0437 33.9687 60.5668C33.9687 59.4114 33.6471 58.3274 33.0009 57.318C32.3562 56.3071 31.5008 55.192 30.4362 53.973L16.1624 53.973L16.1624 56.2838L15.5818 56.2838C14.7107 53.8767 13.3886 51.6793 11.6137 49.6884L11.6137 49.0625L33.5347 49.0625C34.4713 49.0625 34.9381 48.4848 34.9381 47.3294L34.9381 46.1725Z" fill="black"/>
<path d="M34.9381 18.8978L35.8091 18.8978L35.8091 28.6224L34.9381 28.6224L34.9381 27.8521C34.9381 26.8256 34.4713 26.3116 33.5347 26.3116L19.8885 26.3116C18.0825 26.3116 16.6698 26.6237 15.6551 27.2496C14.6405 27.8754 14.1316 29.0059 14.1316 30.6428C14.1316 32.5048 15.2134 34.7348 17.3738 37.3344L33.5363 37.3344C34.4729 37.3344 34.9396 36.7567 34.9396 35.6013L34.9396 34.9274L35.8107 34.9274L35.8107 44.5557L34.9396 44.5557L34.9396 43.8336C34.9396 42.7744 34.4729 42.2449 33.5363 42.2449L16.1624 42.2449L16.1624 44.5557L15.5818 44.5557C14.7107 42.1486 13.3886 39.9512 11.6137 37.9603L11.6137 37.3344L16.0657 37.3344C14.7763 35.9228 13.7351 34.4941 12.9452 33.0498C12.1554 31.6056 11.7589 29.9533 11.7589 28.0913C11.7589 25.7168 12.4691 23.9915 13.8881 22.9153C15.3086 21.8406 17.2598 21.3033 19.7434 21.3033L33.5347 21.3033C34.4713 21.3033 34.9381 20.7737 34.9381 19.7146L34.9381 18.8978Z" fill="black"/>
<path d="M1.16164 -5.15408e-05C1.48476 2.37597 2.41199 4.49418 3.94489 6.35462C5.47778 8.21661 7.518 9.6764 10.0655 10.7355C12.6146 11.7946 15.5337 12.3242 18.8243 12.3242C22.1149 12.3242 24.9387 11.7946 27.4862 10.7355C30.0353 9.6764 32.0678 8.21661 33.5835 6.35462C35.1008 4.49418 36.0342 2.37597 36.3901 -5.30807e-05L37.358 -5.3123e-05C37.1956 3.24251 36.3574 6.23505 34.8416 8.97912C33.3259 11.7232 31.1967 13.9129 28.4541 15.5497C25.7129 17.1865 22.502 18.0049 18.8243 18.0049C15.1466 18.0049 11.8794 17.1865 9.12114 15.5497C6.36287 13.9129 4.22587 11.7232 2.70858 8.97912C1.19286 6.23505 0.354603 3.24252 0.19226 -5.14984e-05L1.16164 -5.15408e-05Z" fill="black"/>
<path d="M12.7843 118.239L12.7843 125.343C12.0662 126.758 11.6729 128.438 11.6729 130.265C11.6729 135.411 14.9119 139.5 19.7963 139.5C23.3569 139.5 25.7468 137.668 26.9378 134.913C27.7495 137.292 29.3964 139.548 31.691 139.548C33.9857 139.548 35.1814 137.974 35.581 135.686C35.9416 138.677 38.5157 141.68 41.5066 141.68C44.9876 141.68 48.0065 138.539 48.0065 131.37C48.0065 123.144 42.9723 118.745 38.7186 118.745C34.8989 118.745 31.3055 121.124 31.4491 127.33C31.5943 134.352 31.0136 136.372 29.8054 136.372C28.8172 136.372 27.9197 135.243 27.3452 133.781C27.6621 132.7 27.8229 131.513 27.8229 130.263C27.8229 125.02 24.3419 120.98 19.7963 120.98C17.7592 120.98 16.0077 121.683 14.6575 122.885L14.2844 118.672L12.7858 118.239L12.7843 118.239ZM35.7496 126.224C35.7496 122.279 37.167 120.285 39.7302 120.285C42.2933 120.285 46.021 123.002 46.021 130.217C46.021 135.17 43.1956 137.591 40.7776 137.591C38.5906 137.591 36.5207 135.88 35.7496 133.481L35.7496 126.224ZM26.9003 130.265C26.9003 132.815 24.5791 134.642 19.7931 134.642C15.0071 134.642 12.5892 132.815 12.5892 130.265C12.5892 127.715 15.0071 125.791 19.7931 125.791C24.5791 125.791 26.9003 127.667 26.9003 130.265Z" fill="black"/>
</svg>
