<svg width="220" height="37" viewBox="0 0 220 37" fill="none" xmlns="http://www.w3.org/2000/svg">
<g clip-path="url(#clip0_116_5402)">
<path d="M97.6282 25.774C97.1586 26.2444 96.5574 26.6477 95.8283 26.9817C95.098 27.3157 94.3383 27.4839 93.547 27.4839C92.7556 27.4839 92.0746 27.2428 91.5803 26.7595C91.0848 26.2761 90.8382 25.5023 90.8382 24.4369V24.2511C89.6512 25.3412 88.5193 26.1527 87.4438 26.6854C86.3683 27.2181 85.3104 27.4839 84.2713 27.4839C83.0337 27.4839 82.0569 27.1005 81.3406 26.3314C80.6233 25.5635 80.2651 24.598 80.2651 23.4326C80.2651 21.9709 80.8769 20.7326 82.1015 19.7165C83.3261 18.7005 85.2611 17.7221 87.9076 16.7813L89.5772 16.2239C89.7498 16.1745 89.9424 16.1192 90.1525 16.0569C90.3627 15.9957 90.5917 15.9146 90.8394 15.8158V12.9911C90.8394 10.712 89.8379 9.57251 87.8336 9.57251C86.8685 9.57251 86.0583 9.87004 85.4032 10.4639C84.748 11.059 84.2959 11.9386 84.0494 13.1028C83.9014 13.8213 83.7652 14.3105 83.6408 14.5704C83.5163 14.8303 83.2568 14.9609 82.8611 14.9609C82.5394 14.9609 82.2987 14.8374 82.1379 14.5892C81.977 14.3423 81.9336 14.0318 82.0076 13.6602C82.3786 12.0503 83.1817 10.8238 84.4192 9.98175C85.6556 9.13975 87.1397 8.71875 88.8715 8.71875C90.776 8.71875 92.2108 9.22089 93.1759 10.224C94.1411 11.2271 94.6225 12.6947 94.6225 14.6281V24.5498C94.6225 25.0955 94.7093 25.4729 94.8819 25.6834C95.0545 25.8939 95.314 25.9998 95.6616 25.9998C95.9081 25.9998 96.1864 25.9128 96.4964 25.7399C96.8052 25.567 97.0588 25.393 97.2572 25.2201L97.6282 25.7775V25.774ZM84.6423 24.4922C85.1859 24.9261 85.8787 25.1425 86.7205 25.1425C87.4133 25.1425 88.1236 25.0002 88.8539 24.7156C89.5831 24.431 90.2453 24.0406 90.8394 23.5455V16.5226C89.0582 17.1176 87.445 17.9784 85.9973 19.105C84.5507 20.2328 83.8263 21.3899 83.8263 22.58C83.8263 23.422 84.0987 24.0606 84.6423 24.4934V24.4922Z" fill="white"/>
<path d="M0 0.145996C2.45042 0.268298 4.71298 0.8998 6.78767 2.04168C8.86237 3.18473 10.5191 4.79465 11.7566 6.8726C12.9942 8.95056 13.6129 11.3872 13.6129 14.1825C13.6129 16.9778 12.9942 19.3721 11.7566 21.4371C10.5191 23.5033 8.86237 25.1074 6.78767 26.2492C4.71298 27.3911 2.45042 28.0214 0 28.1437V27.4146C1.79525 27.1465 3.39677 26.4433 4.80456 25.3002C6.21117 24.1583 7.31603 22.6272 8.11679 20.7068C8.91755 18.7876 9.31793 16.6121 9.31793 14.1813C9.31793 11.7506 8.91755 9.50327 8.11679 7.5829C7.31603 5.6637 6.21117 4.12551 4.80456 2.97188C3.39677 1.81706 1.79525 1.11853 0 0.875104V0.145996Z" fill="white"/>
<path d="M34.2343 26.321V26.9772H26.8818V26.321H27.4642C28.2403 26.321 28.6289 25.9694 28.6289 25.2638V14.9834C28.6289 13.6228 28.3929 12.5585 27.9198 11.7941C27.4466 11.0297 26.5918 10.6464 25.3543 10.6464C23.9465 10.6464 22.2604 11.4613 20.2949 13.0889V25.265C20.2949 25.9706 20.7317 26.3222 21.6053 26.3222H22.1148V26.9784H14.8352V26.3222H15.3812C16.1819 26.3222 16.5823 25.9706 16.5823 25.265V12.1763H14.8352V11.7389C16.6551 11.0827 18.3165 10.0866 19.8218 8.74951H20.2949V12.1034C21.3622 11.132 22.4424 10.3477 23.5344 9.75262C24.6263 9.15758 25.8756 8.85888 27.2834 8.85888C29.0786 8.85888 30.3831 9.39395 31.1968 10.4629C32.0093 11.5331 32.4155 13.003 32.4155 14.874V25.2638C32.4155 25.9694 32.8159 26.321 33.6167 26.321H34.2354H34.2343Z" fill="white"/>
<path d="M45.027 25.4823C46.1917 25.4823 47.259 25.1671 48.23 24.5344C49.1999 23.9029 49.9889 23.0645 50.5959 22.019L51.1419 22.3836C50.3893 23.9641 49.3701 25.1965 48.0844 26.0832C46.7976 26.9711 45.2571 27.4132 43.4619 27.4132C41.7876 27.4132 40.2823 27.024 38.9485 26.2467C37.6135 25.4694 36.5768 24.3757 35.837 22.9657C35.0962 21.5569 34.7263 19.9528 34.7263 18.1536C34.7263 16.3543 35.102 14.7444 35.8547 13.3227C36.6061 11.9009 37.644 10.7955 38.9661 10.0052C40.2882 9.21613 41.7864 8.81982 43.4619 8.81982C44.9906 8.81982 46.3068 9.14792 47.4105 9.80412C48.5142 10.4603 49.3513 11.3294 49.922 12.4113C50.4914 13.4932 50.7779 14.6656 50.7779 15.9298H38.7665C38.6691 17.3398 38.797 18.7733 39.1481 20.2315C39.4992 21.6898 40.1543 22.9292 41.1136 23.95C42.0717 24.9707 43.3762 25.4811 45.027 25.4811V25.4823ZM46.9925 15.0925C47.0653 14.6797 47.1017 14.267 47.1017 13.853C47.1017 12.6135 46.7917 11.574 46.173 10.7355C45.5542 9.89702 44.6501 9.47837 43.4619 9.47837C42.1515 9.47837 41.0901 10.0193 40.2776 11.1C39.464 12.182 38.9849 13.512 38.8393 15.0925H46.9925Z" fill="white"/>
<path d="M71.2536 7.91087C71.2536 12.9417 67.6372 15.4571 60.4069 15.4571H57.5314V24.7168C57.5314 25.7869 58.1502 26.3208 59.3878 26.3208H59.8609V26.977H51.089V26.3208H51.8533C52.9453 26.3208 53.4913 25.7869 53.4913 24.7168V2.88003C53.4913 1.83576 52.9453 1.31245 51.8533 1.31245H50.907V0.65625H61.6808C64.9074 0.65625 67.3096 1.23366 68.8877 2.38847C70.4645 3.54328 71.2536 5.38369 71.2536 7.91087ZM57.5314 1.31245V14.8009H59.9337C62.2867 14.8009 64.0643 14.1871 65.2655 12.9594C66.4666 11.7328 67.0678 10.037 67.0678 7.87324C67.0678 5.70944 66.5218 4.076 65.4299 2.97058C64.3379 1.86516 62.7364 1.31127 60.6253 1.31127H57.5314V1.31245Z" fill="white"/>
<path d="M79.3892 26.3208V26.977H72.0004V26.3208H72.6556C73.4563 26.3208 73.8567 25.9692 73.8567 25.2636V3.79136H71.7456V3.3539C72.692 3.01404 73.6501 2.54012 74.6211 1.93214C75.5909 1.32533 76.4163 0.680893 77.0961 0H77.5693V25.2636C77.5693 25.9692 78.0061 26.3208 78.8797 26.3208H79.3892Z" fill="white"/>
<path d="M109.393 9.33272H114.962V9.98892H114.016C113.579 9.98892 113.251 10.0924 113.033 10.2982C112.814 10.5052 112.583 10.9238 112.341 11.5565L106.154 27.8521C105.28 30.1605 104.466 31.9104 103.715 33.1016C102.962 34.2917 102.29 35.0702 101.694 35.4348C101.099 35.7993 100.463 35.9816 99.7839 35.9816C99.0313 35.9816 98.4431 35.8228 98.018 35.5077C97.593 35.1913 97.3817 34.7903 97.3817 34.3047C97.3817 33.9401 97.4967 33.6355 97.728 33.3933C97.9582 33.1498 98.2552 33.0287 98.6192 33.0287C98.8611 33.0287 99.0501 33.0769 99.1828 33.1745C99.3155 33.271 99.4564 33.405 99.602 33.5756C99.7957 33.7696 99.9601 33.9095 100.093 33.9942C100.225 34.0789 100.426 34.1212 100.694 34.1212C101.227 34.1212 101.713 33.926 102.15 33.5379C102.587 33.1487 103.023 32.523 103.46 31.6611C103.897 30.7979 104.418 29.5772 105.025 27.9967L97.964 11.5189C97.6963 10.9603 97.4298 10.5651 97.1633 10.3347C96.8956 10.1042 96.5445 9.98774 96.1077 9.98774H95.1614V9.33154H103.205V9.98774H102.659C102.101 9.98774 101.822 10.183 101.822 10.571C101.822 10.7415 101.907 11.0449 102.077 11.4824L106.918 23.0388L111.213 11.5189C111.334 11.1543 111.395 10.8756 111.395 10.6804C111.395 10.2194 111.091 9.98774 110.485 9.98774H109.393V9.33154V9.33272Z" fill="white"/>
<path d="M144.813 9.78908C145.407 10.3359 145.704 10.9368 145.704 11.593C145.704 12.0305 145.57 12.395 145.304 12.6867C145.036 12.9783 144.66 13.1242 144.176 13.1242C143.691 13.1242 143.356 13.0324 143.101 12.8502C142.846 12.6679 142.586 12.3939 142.318 12.0305C142.05 11.6659 141.796 11.399 141.554 11.2285C141.311 11.0591 140.958 10.9733 140.498 10.9733C139.454 10.9733 138.29 11.8365 137.004 13.5616V25.2638C137.004 25.9694 137.441 26.321 138.314 26.321H139.188V26.9772H131.617V26.321H132.09C132.891 26.321 133.291 25.9694 133.291 25.2638V12.1763H131.544V11.7389C133.364 11.0827 135.025 10.0866 136.531 8.74951H137.004V12.4315C138.92 10.1231 140.692 8.96824 142.318 8.96824C143.385 8.96824 144.217 9.24107 144.812 9.7879L144.813 9.78908Z" fill="white"/>
<path d="M145.833 18.0453C145.833 15.1536 146.653 12.8686 148.291 11.1917C149.929 9.51474 152.18 8.67627 155.042 8.67627C157.905 8.67627 160.156 9.51474 161.794 11.1917C163.431 12.8686 164.25 15.1536 164.25 18.0453C164.25 20.937 163.431 23.1796 161.794 24.8448C160.156 26.51 157.905 27.3414 155.042 27.3414C152.18 27.3414 149.928 26.5088 148.291 24.8448C146.653 23.1808 145.833 20.9135 145.833 18.0453ZM150.128 18.0453C150.128 20.6948 150.548 22.7845 151.385 24.3156C152.222 25.8468 153.441 26.6123 155.043 26.6123C156.646 26.6123 157.87 25.8468 158.72 24.3156C159.569 22.7845 159.994 20.6948 159.994 18.0453C159.994 15.3958 159.569 13.2638 158.72 11.7197C157.87 10.1768 156.645 9.40538 155.043 9.40538C153.442 9.40538 152.222 10.1709 151.385 11.7021C150.548 13.2332 150.128 15.3476 150.128 18.0453Z" fill="white"/>
<path d="M185.091 26.321V26.9772H179.194V23.915C178.126 24.9604 177.065 25.7918 176.01 26.4127C174.954 27.0325 173.674 27.3418 172.17 27.3418C170.496 27.3418 169.18 26.789 168.221 25.6836C167.261 24.5782 166.782 23.1376 166.782 21.3631V12.1763H165.035V11.7389C166.928 11.0344 168.614 10.0384 170.095 8.74951H170.568V21.2537C170.568 22.5179 170.895 23.5563 171.55 24.3701C172.206 25.185 173.091 25.5907 174.207 25.5907C175.081 25.5907 175.901 25.3485 176.664 24.8616C177.428 24.3759 178.271 23.7315 179.193 22.9295V12.1763H177.446V11.7389C179.266 11.0827 180.927 10.0866 182.432 8.74951H182.905V25.2638C182.905 25.9694 183.342 26.321 184.216 26.321H185.089H185.091Z" fill="white"/>
<path d="M205.712 26.321V26.9772H198.36V26.321H198.942C199.718 26.321 200.107 25.9694 200.107 25.2638V14.9834C200.107 13.6228 199.871 12.5585 199.398 11.7941C198.924 11.0297 198.07 10.6464 196.832 10.6464C195.424 10.6464 193.738 11.4613 191.773 13.0889V25.265C191.773 25.9706 192.209 26.3222 193.083 26.3222H193.593V26.9784H186.313V26.3222H186.859C187.66 26.3222 188.06 25.9706 188.06 25.265V12.1763H186.313V11.7389C188.133 11.0827 189.794 10.0866 191.3 8.74951H191.773V12.1034C192.84 11.132 193.92 10.3477 195.012 9.75262C196.104 9.15758 197.353 8.85888 198.761 8.85888C200.556 8.85888 201.861 9.39395 202.675 10.4629C203.487 11.5331 203.893 13.003 203.893 14.874V25.2638C203.893 25.9694 204.294 26.321 205.094 26.321H205.713H205.712Z" fill="white"/>
<path d="M220 0.874815C218.204 1.11824 216.602 1.81678 215.196 2.97159C213.788 4.1264 212.684 5.66341 211.883 7.58261C211.083 9.50298 210.682 11.7021 210.682 14.181C210.682 16.66 211.083 18.7873 211.883 20.7065C212.684 22.6269 213.788 24.1581 215.196 25.2999C216.602 26.443 218.204 27.1462 220 27.4143V28.1434C217.549 28.0211 215.286 27.3896 213.211 26.2478C211.137 25.1059 209.481 23.5019 208.244 21.4357C207.006 19.3706 206.387 16.9516 206.387 14.181C206.387 11.4104 207.006 8.9491 208.244 6.87114C209.481 4.79318 211.137 3.18326 213.211 2.04021C215.286 0.898335 217.549 0.266833 220 0.144531V0.874815Z" fill="white"/>
<path d="M130.604 9.63124H125.232C124.162 9.09029 122.892 8.79395 121.511 8.79395C117.62 8.79395 114.529 11.2341 114.529 14.9137C114.529 17.5962 115.914 19.3966 117.997 20.2939C116.198 20.9054 114.492 22.146 114.492 23.8747C114.492 25.6034 115.683 26.5042 117.412 26.8053C115.151 27.0769 112.88 29.0161 112.88 31.2693C112.88 33.8917 115.255 36.1661 120.675 36.1661C126.895 36.1661 130.221 32.3735 130.221 29.169C130.221 26.2914 128.422 23.5842 123.73 23.6924C118.421 23.8018 116.893 23.3643 116.893 22.4541C116.893 21.7097 117.747 21.0335 118.853 20.6008C119.67 20.8395 120.567 20.9606 121.512 20.9606C125.476 20.9606 128.531 18.3382 128.531 14.9137C128.531 13.3791 127.999 12.0596 127.091 11.0424L130.276 10.7614L130.604 9.63242V9.63124ZM124.566 26.9334C127.549 26.9334 129.056 28.0012 129.056 29.9322C129.056 31.8631 127.003 34.6714 121.548 34.6714C117.802 34.6714 115.972 32.5429 115.972 30.7213C115.972 29.0737 117.266 27.5144 119.08 26.9334H124.566ZM121.511 20.2668C119.583 20.2668 118.201 18.5181 118.201 14.9126C118.201 11.307 119.583 9.48542 121.511 9.48542C123.439 9.48542 124.894 11.307 124.894 14.9126C124.894 18.5181 123.476 20.2668 121.511 20.2668Z" fill="white"/>
</g>
<defs>
<clipPath id="clip0_116_5402">
<rect width="220" height="36.1661" fill="white"/>
</clipPath>
</defs>
</svg>
