<?xml version="1.0" encoding="UTF-8"?>
<svg xmlns="http://www.w3.org/2000/svg" width="40" height="40" viewBox="0 0 40 40" fill="none">
  <circle cx="19.9999" cy="20" r="19" stroke="black" stroke-width="2"></circle>
  <path d="M25.0763 13.82C25.0763 13.82 25.5863 14.32 25.0763 13.82C24.3927 13.0396 24.016 12.0374 24.0163 11H20.9263V23.4C20.9025 24.071 20.6192 24.7066 20.1361 25.1729C19.653 25.6393 19.0077 25.8999 18.3363 25.9C16.9163 25.9 15.7363 24.74 15.7363 23.3C15.7363 21.58 17.3963 20.29 19.1063 20.82V17.66C15.6563 17.2 12.6363 19.88 12.6363 23.3C12.6363 26.63 15.3963 29 18.3263 29C21.4663 29 24.0163 26.45 24.0163 23.3V17.01C25.2693 17.9099 26.7737 18.3926 28.3163 18.39V15.3C28.3163 15.3 26.4363 15.39 25.0763 13.82Z" fill="black"></path>
</svg>
